# xmcd CD database file
#
# Track frame offsets:
#	150
#	11951
#	26170
#	40921
#	55525
#	68839
#	81701
#	94587
#	108016
#	121905
#	135312
#	149531
#	161612
#	173264
#	186978
#	199329
#	211593
#	225205
#	238643
#	251374
#	263072
#	274843
#	287001
#	300625
#	312231
#	324308
#
# Disc length: 4464 seconds
#
# Revision: 0
# Processed by: cddbd v1.5.2PL0 Copyright (c) Steve Scherf et al.
# Submitted via: CDex 1.51
#
DISCID=60116e1a
DTITLE=Fletcher Henderson - A Study In Frustration - The Fletcher Henderson Story [disc 3]
DYEAR=1994
DGENRE=Jazz
TTITLE0=Blue Moments
TTITLE1=New King Porter Stomp
TTITLE2=Underneath The Harlem Moon
TTITLE3=Honeysuckle Rose
TTITLE4=Yeah Man
TTITLE5=Queer Notions
TTITLE6=Can You Take It!
TTITLE7=King Porter Stomp
TTITLE8=Christopher Columbus
TTITLE9=Stealin' Apples
TTITLE10=Blue Lou
TTITLE11=Rhythm Of The Tambourine
TTITLE12=Back In Your Own Backyard
TTITLE13=Chris And His Gang
TTITLE14=Sing You Sinners
TTITLE15=Moten Stomp
TTITLE16=Wild Party
TTITLE17=Rug Cutter's Swing
TTITLE18=Hotter Than 'ell
TTITLE19=Liza (All Clouds 'll Roll Away)
TTITLE20=I'm A Fool For Loving You
TTITLE21=Moonrise On The Lowdowns
TTITLE22=I'll Always Be In Love With You
TTITLE23=Jangled Nerves
TTITLE24=Grand Terrace Rhythm
TTITLE25=Riffin'
EXTD=YEAR: 1994
EXTT0=
EXTT1=
EXTT2=
EXTT3=
EXTT4=
EXTT5=
EXTT6=
EXTT7=
EXTT8=
EXTT9=
EXTT10=
EXTT11=
EXTT12=
EXTT13=
EXTT14=
EXTT15=
EXTT16=
EXTT17=
EXTT18=
EXTT19=
EXTT20=
EXTT21=
EXTT22=
EXTT23=
EXTT24=
EXTT25=
PLAYORDER=
